<?xml version="1.0" encoding="UTF-8" standalone="no"?>
<!DOCTYPE svg PUBLIC "-//W3C//DTD SVG 1.0//EN" "http://www.w3.org/TR/2001/REC-SVG-20010904/DTD/svg10.dtd">
<!-- Создано Microsoft Visio 11.0, Экспорт SVG, версия 1.0 T_Д_Y2КЗ.svg Page-1 -->
<svg xmlns="http://www.w3.org/2000/svg" xmlns:xlink="http://www.w3.org/1999/xlink" xmlns:ev="http://www.w3.org/2001/xml-events"
		xmlns:v="http://schemas.microsoft.com/visio/2003/SVGExtensions/" width="6.29921in" height="2.59843in"
		viewBox="0 0 453.543 187.087" xml:space="preserve" color-interpolation-filters="sRGB" class="st15">
	<v:documentProperties v:langID="1049" v:metric="true" v:viewMarkup="false">
		<v:userDefs>
			<v:ud v:nameU="msvNoAutoConnect" v:val="VT0(0):26"/>
			<v:ud v:nameU="OffsetPageNamber" v:prompt="" v:val="VT0(0):26"/>
		</v:userDefs>
	</v:documentProperties>

	<style type="text/css">
	<![CDATA[
		.st1 {fill:#000000}
		.st2 {stroke:#000000;stroke-linecap:round;stroke-linejoin:round;stroke-width:1.41732}
		.st3 {fill:none;stroke:#000000;stroke-linecap:round;stroke-linejoin:round;stroke-width:1.41732}
		.st4 {stroke:#000000;stroke-linecap:round;stroke-linejoin:round;stroke-width:1.41732;visibility:hidden}
		.st5 {fill:none;stroke:none;stroke-linecap:round;stroke-linejoin:round;stroke-width:0.75}
		.st6 {fill:#000000;font-family:ГОСТ тип А;font-size:1.99999em}
		.st7 {marker-start:url(#mrkr13-156);stroke:#000000;stroke-linecap:round;stroke-linejoin:round;stroke-width:1.41732}
		.st8 {fill:#000000;fill-opacity:1;stroke:#000000;stroke-opacity:1;stroke-width:0.44052863436123}
		.st9 {fill:#000000;font-family:ГОСТ тип А;font-size:1.1811em;font-style:italic}
		.st10 {baseline-shift:-24.9995%;font-size:0.49999em;font-style:normal}
		.st11 {marker-end:url(#mrkr13-181);stroke:#ff0000;stroke-linecap:round;stroke-linejoin:round;stroke-width:3}
		.st12 {fill:#ff0000;fill-opacity:1;stroke:#ff0000;stroke-opacity:1;stroke-width:0.54347826086957}
		.st13 {stroke:#ff0000;stroke-linecap:round;stroke-linejoin:round;stroke-width:1.41732}
		.st14 {font-size:1em;font-style:normal}
		.st15 {fill:none;fill-rule:evenodd;font-size:12px;overflow:visible;stroke-linecap:square;stroke-miterlimit:3}
	]]>
	</style>

	<defs id="Markers">
		<g id="lend13">
			<path d="M 3 1 L 0 0 L 3 -1 L 3 1 " style="stroke:none"/>
		</g>
		<marker id="mrkr13-156" class="st8" v:arrowType="13" v:arrowSize="1" v:setback="6.556" refX="6.556" orient="auto"
				markerUnits="strokeWidth" overflow="visible">
			<use xlink:href="#lend13" transform="scale(2.27) "/>
		</marker>
		<marker id="mrkr13-181" class="st12" v:arrowType="13" v:arrowSize="2" v:setback="5.52" refX="-5.52" orient="auto"
				markerUnits="strokeWidth" overflow="visible">
			<use xlink:href="#lend13" transform="scale(-1.84,-1.84) "/>
		</marker>
	</defs>
	<g v:mID="0" v:index="1" v:groupContext="foregroundPage">
		<v:custProps>
			<v:cp v:nameU="EPrec" v:lbl="Точность элиментов схемы" v:type="1" v:format="0;0.0;0.00;0.000;0.0000" v:sortKey=""
					v:invis="false" v:ask="false" v:langID="1049" v:cal="0" v:val="VT4(0.00)"/>
		</v:custProps>
		<title>Страница-1</title>
		<v:pageProperties v:drawingScale="0.0393701" v:pageScale="0.0393701" v:drawingUnits="24" v:shadowOffsetX="8.50394"
				v:shadowOffsetY="-8.50394"/>
		<v:layer v:name="Соединительная линия" v:index="0"/>
		<v:layer v:name="ТОЭ" v:index="1"/>
		<g id="shape13-1" v:mID="13" v:groupContext="shape" transform="translate(131.811,-124.724)">
			<title>Лист.13</title>
			<v:custProps>
				<v:cp v:nameU="Radus" v:lbl="Радиус" v:type="2" v:format="0.## u" v:langID="1049" v:val="VT0(0.098425196850394):24"/>
				<v:cp v:nameU="NumberOfArcs" v:lbl="Число дуг" v:type="2" v:format="0" v:langID="1049" v:val="VT0(3):26"/>
				<v:cp v:nameU="ParallelCoilIeads" v:lbl="Вводы параллельно катушки" v:type="3" v:invis="false" v:langID="1049"
						v:val="VT0(1):5"/>
				<v:cp v:nameU="ShowCoilPins" v:lbl="Показать выводы катушки" v:type="3" v:langID="1049" v:val="VT0(1):5"/>
				<v:cp v:nameU="ShowStartOfWinding" v:lbl="Показать начало обмотки" v:type="3" v:langID="1033" v:val="VT0(1):5"/>
				<v:cp v:nameU="SwapBeginEndWinding" v:lbl="Поменять начало и конец обмотки" v:type="3" v:invis="false"
						v:langID="1033" v:val="VT0(0):5"/>
			</v:custProps>
			<v:userDefs>
				<v:ud v:nameU="ArcW" v:prompt="" v:val="VT0(0.19685039370079):24"/>
				<v:ud v:nameU="ArcH" v:prompt="" v:val="VT0(0.098425196850394):24"/>
				<v:ud v:nameU="Ks" v:prompt="" v:val="VT0(1):26"/>
				<v:ud v:nameU="Radus" v:prompt="" v:val="VT0(0.098425196850394):24"/>
				<v:ud v:nameU="Width" v:prompt="" v:val="VT0(0.98425196850394):24"/>
				<v:ud v:nameU="Height" v:prompt="" v:val="VT0(0.19685039370079):24"/>
				<v:ud v:nameU="LegthPin" v:prompt="" v:val="VT0(0.19685039370079):24"/>
				<v:ud v:nameU="OffsetArcsX" v:prompt="" v:val="VT0(0.19685039370079):24"/>
				<v:ud v:nameU="StartDesignationSize" v:prompt="" v:val="VT0(0.078740157480315):24"/>
			</v:userDefs>
			<path d="M11.34 172.91 L8.5 172.91 A2.83465 2.83465 -180 0 0 14.17 172.91 A2.83465 2.83465 -180 0 0 8.5 172.91 L11.34
						 172.91 Z" class="st1"/>
			<path d="M14.17 180 A7.08661 7.08661 0 0 1 28.35 180" class="st2"/>
			<path d="M28.35 180 A7.08661 7.08661 0 0 1 42.52 180" class="st2"/>
			<path d="M42.52 180 A7.08661 7.08661 0 0 1 56.69 180" class="st2"/>
			<path d="M14.17 180 L0 180" class="st2"/>
			<path d="M56.69 180 L70.87 180" class="st2"/>
		</g>
		<g id="shape14-8" v:mID="14" v:groupContext="shape" transform="translate(131.811,-68.0315)">
			<title>Лист.14</title>
			<v:custProps>
				<v:cp v:nameU="Radus" v:lbl="Радиус" v:type="2" v:format="0.## u" v:langID="1049" v:val="VT0(0.098425196850394):24"/>
				<v:cp v:nameU="NumberOfArcs" v:lbl="Число дуг" v:type="2" v:format="0" v:langID="1049" v:val="VT0(3):26"/>
				<v:cp v:nameU="ParallelCoilIeads" v:lbl="Вводы параллельно катушки" v:type="3" v:invis="false" v:langID="1049"
						v:val="VT0(1):5"/>
				<v:cp v:nameU="ShowCoilPins" v:lbl="Показать выводы катушки" v:type="3" v:langID="1049" v:val="VT0(1):5"/>
				<v:cp v:nameU="ShowStartOfWinding" v:lbl="Показать начало обмотки" v:type="3" v:langID="1033" v:val="VT0(1):5"/>
				<v:cp v:nameU="SwapBeginEndWinding" v:lbl="Поменять начало и конец обмотки" v:type="3" v:invis="false"
						v:langID="1033" v:val="VT0(0):5"/>
			</v:custProps>
			<v:userDefs>
				<v:ud v:nameU="ArcW" v:prompt="" v:val="VT0(0.19685039370079):24"/>
				<v:ud v:nameU="ArcH" v:prompt="" v:val="VT0(0.098425196850394):24"/>
				<v:ud v:nameU="Ks" v:prompt="" v:val="VT0(1):26"/>
				<v:ud v:nameU="Radus" v:prompt="" v:val="VT0(0.098425196850394):24"/>
				<v:ud v:nameU="Width" v:prompt="" v:val="VT0(0.98425196850394):24"/>
				<v:ud v:nameU="Height" v:prompt="" v:val="VT0(0.19685039370079):24"/>
				<v:ud v:nameU="LegthPin" v:prompt="" v:val="VT0(0.19685039370079):24"/>
				<v:ud v:nameU="OffsetArcsX" v:prompt="" v:val="VT0(0.19685039370079):24"/>
				<v:ud v:nameU="StartDesignationSize" v:prompt="" v:val="VT0(0.078740157480315):24"/>
			</v:userDefs>
			<path d="M11.34 172.91 L8.5 172.91 A2.83465 2.83465 -180 0 0 14.17 172.91 A2.83465 2.83465 -180 0 0 8.5 172.91 L11.34
						 172.91 Z" class="st1"/>
			<path d="M14.17 180 A7.08661 7.08661 0 0 1 28.35 180" class="st2"/>
			<path d="M28.35 180 A7.08661 7.08661 0 0 1 42.52 180" class="st2"/>
			<path d="M42.52 180 A7.08661 7.08661 0 0 1 56.69 180" class="st2"/>
			<path d="M14.17 180 L0 180" class="st2"/>
			<path d="M56.69 180 L70.87 180" class="st2"/>
		</g>
		<g id="shape15-15" v:mID="15" v:groupContext="shape" transform="translate(131.811,-11.3386)">
			<title>Лист.15</title>
			<v:custProps>
				<v:cp v:nameU="Radus" v:lbl="Радиус" v:type="2" v:format="0.## u" v:langID="1049" v:val="VT0(0.098425196850394):24"/>
				<v:cp v:nameU="NumberOfArcs" v:lbl="Число дуг" v:type="2" v:format="0" v:langID="1049" v:val="VT0(3):26"/>
				<v:cp v:nameU="ParallelCoilIeads" v:lbl="Вводы параллельно катушки" v:type="3" v:invis="false" v:langID="1049"
						v:val="VT0(1):5"/>
				<v:cp v:nameU="ShowCoilPins" v:lbl="Показать выводы катушки" v:type="3" v:langID="1049" v:val="VT0(1):5"/>
				<v:cp v:nameU="ShowStartOfWinding" v:lbl="Показать начало обмотки" v:type="3" v:langID="1033" v:val="VT0(1):5"/>
				<v:cp v:nameU="SwapBeginEndWinding" v:lbl="Поменять начало и конец обмотки" v:type="3" v:invis="false"
						v:langID="1033" v:val="VT0(0):5"/>
			</v:custProps>
			<v:userDefs>
				<v:ud v:nameU="ArcW" v:prompt="" v:val="VT0(0.19685039370079):24"/>
				<v:ud v:nameU="ArcH" v:prompt="" v:val="VT0(0.098425196850394):24"/>
				<v:ud v:nameU="Ks" v:prompt="" v:val="VT0(1):26"/>
				<v:ud v:nameU="Radus" v:prompt="" v:val="VT0(0.098425196850394):24"/>
				<v:ud v:nameU="Width" v:prompt="" v:val="VT0(0.98425196850394):24"/>
				<v:ud v:nameU="Height" v:prompt="" v:val="VT0(0.19685039370079):24"/>
				<v:ud v:nameU="LegthPin" v:prompt="" v:val="VT0(0.19685039370079):24"/>
				<v:ud v:nameU="OffsetArcsX" v:prompt="" v:val="VT0(0.19685039370079):24"/>
				<v:ud v:nameU="StartDesignationSize" v:prompt="" v:val="VT0(0.078740157480315):24"/>
			</v:userDefs>
			<path d="M11.34 172.91 L8.5 172.91 A2.83465 2.83465 -180 0 0 14.17 172.91 A2.83465 2.83465 -180 0 0 8.5 172.91 L11.34
						 172.91 Z" class="st1"/>
			<path d="M14.17 180 A7.08661 7.08661 0 0 1 28.35 180" class="st2"/>
			<path d="M28.35 180 A7.08661 7.08661 0 0 1 42.52 180" class="st2"/>
			<path d="M42.52 180 A7.08661 7.08661 0 0 1 56.69 180" class="st2"/>
			<path d="M14.17 180 L0 180" class="st2"/>
			<path d="M56.69 180 L70.87 180" class="st2"/>
		</g>
		<g id="shape16-22" v:mID="16" v:groupContext="shape" transform="translate(35.4331,-128.976)">
			<title>Лист.16</title>
			<ellipse cx="2.83465" cy="184.252" rx="2.83465" ry="2.83465" class="st3"/>
		</g>
		<g id="shape17-24" v:mID="17" v:groupContext="shape" transform="translate(35.4331,-72.2835)">
			<title>Лист.17</title>
			<ellipse cx="2.83465" cy="184.252" rx="2.83465" ry="2.83465" class="st3"/>
		</g>
		<g id="shape18-26" v:mID="18" v:groupContext="shape" transform="translate(35.4331,-15.5906)">
			<title>Лист.18</title>
			<ellipse cx="2.83465" cy="184.252" rx="2.83465" ry="2.83465" class="st3"/>
		</g>
		<g id="shape19-28" v:mID="19" v:groupContext="shape" v:layerMember="0" transform="translate(41.1024,-124.724)">
			<title>Прямая соеденительная</title>
			<path d="M0 180 L73.7 180" class="st2"/>
		</g>
		<g id="shape20-31" v:mID="20" v:groupContext="shape" v:layerMember="0" transform="translate(117.638,-77.9528)">
			<title>Угловая соед линия</title>
			<path d="M0 187.09 L0 160.16 L90.71 160.16 L90.71 133.23 L85.04 133.23" class="st2"/>
		</g>
		<g id="shape21-34" v:mID="21" v:groupContext="shape" transform="translate(114.803,-72.2835)">
			<title>Лист.21</title>
			<ellipse cx="2.83465" cy="184.252" rx="2.83465" ry="2.83465" class="st1"/>
			<ellipse cx="2.83465" cy="184.252" rx="2.83465" ry="2.83465" class="st4"/>
		</g>
		<g id="shape22-37" v:mID="22" v:groupContext="shape" transform="translate(114.803,-15.5906)">
			<title>Лист.22</title>
			<ellipse cx="2.83465" cy="184.252" rx="2.83465" ry="2.83465" class="st1"/>
			<ellipse cx="2.83465" cy="184.252" rx="2.83465" ry="2.83465" class="st4"/>
		</g>
		<g id="shape23-40" v:mID="23" v:groupContext="shape" v:layerMember="0" transform="translate(117.638,-21.2598)">
			<title>Угловая соед линия.23</title>
			<path d="M0 187.09 L0 160.16 L90.71 160.16 L90.71 133.23 L85.04 133.23" class="st2"/>
		</g>
		<g id="shape24-43" v:mID="24" v:groupContext="shape" v:layerMember="0" transform="translate(119.055,-68.0315)">
			<title>Прямая соеденительная.24</title>
			<path d="M1.42 180 L12.76 180" class="st2"/>
		</g>
		<g id="shape25-46" v:mID="25" v:groupContext="shape" v:layerMember="0" transform="translate(41.1024,-68.0315)">
			<title>Прямая соеденительная.25</title>
			<path d="M0 180 L73.7 180" class="st2"/>
		</g>
		<g id="shape26-49" v:mID="26" v:groupContext="shape" v:layerMember="0" transform="translate(119.055,-11.3386)">
			<title>Прямая соеденительная.26</title>
			<path d="M1.42 180 L12.76 180" class="st2"/>
		</g>
		<g id="shape27-52" v:mID="27" v:groupContext="shape" v:layerMember="0" transform="translate(41.1024,-11.3386)">
			<title>Прямая соеденительная.27</title>
			<path d="M0 180 L73.7 180" class="st2"/>
		</g>
		<g id="shape28-55" v:mID="28" v:groupContext="shape" transform="translate(114.803,-128.976)">
			<title>Лист.28</title>
			<ellipse cx="2.83465" cy="184.252" rx="2.83465" ry="2.83465" class="st1"/>
			<ellipse cx="2.83465" cy="184.252" rx="2.83465" ry="2.83465" class="st4"/>
		</g>
		<g id="shape29-58" v:mID="29" v:groupContext="shape" v:layerMember="0" transform="translate(202.677,-18.4252)">
			<title>Угловая соед линия.29</title>
			<path d="M0 187.09 L19.84 187.09 L19.84 43.94 L-85.04 43.94 L-85.04 70.87" class="st2"/>
		</g>
		<g id="shape30-61" v:mID="30" v:groupContext="shape" v:layerMember="0" transform="translate(119.055,-124.724)">
			<title>Прямая соеденительная.30</title>
			<path d="M1.42 180 L12.76 180" class="st2"/>
		</g>
		<g id="shape31-64" v:mID="31" v:groupContext="shape" transform="translate(250.866,-124.724)">
			<title>Лист.31</title>
			<v:custProps>
				<v:cp v:nameU="Radus" v:lbl="Радиус" v:type="2" v:format="0.## u" v:langID="1049" v:val="VT0(0.098425196850394):24"/>
				<v:cp v:nameU="NumberOfArcs" v:lbl="Число дуг" v:type="2" v:format="0" v:langID="1049" v:val="VT0(3):26"/>
				<v:cp v:nameU="ParallelCoilIeads" v:lbl="Вводы параллельно катушки" v:type="3" v:invis="false" v:langID="1049"
						v:val="VT0(1):5"/>
				<v:cp v:nameU="ShowCoilPins" v:lbl="Показать выводы катушки" v:type="3" v:langID="1049" v:val="VT0(1):5"/>
				<v:cp v:nameU="ShowStartOfWinding" v:lbl="Показать начало обмотки" v:type="3" v:langID="1033" v:val="VT0(1):5"/>
				<v:cp v:nameU="SwapBeginEndWinding" v:lbl="Поменять начало и конец обмотки" v:type="3" v:invis="false"
						v:langID="1033" v:val="VT0(1):5"/>
			</v:custProps>
			<v:userDefs>
				<v:ud v:nameU="ArcW" v:prompt="" v:val="VT0(0.19685039370079):24"/>
				<v:ud v:nameU="ArcH" v:prompt="" v:val="VT0(0.098425196850394):24"/>
				<v:ud v:nameU="Ks" v:prompt="" v:val="VT0(1):26"/>
				<v:ud v:nameU="Radus" v:prompt="" v:val="VT0(0.098425196850394):24"/>
				<v:ud v:nameU="Width" v:prompt="" v:val="VT0(0.98425196850394):24"/>
				<v:ud v:nameU="Height" v:prompt="" v:val="VT0(0.19685039370079):24"/>
				<v:ud v:nameU="LegthPin" v:prompt="" v:val="VT0(0.19685039370079):24"/>
				<v:ud v:nameU="OffsetArcsX" v:prompt="" v:val="VT0(0.19685039370079):24"/>
				<v:ud v:nameU="StartDesignationSize" v:prompt="" v:val="VT0(0.078740157480315):24"/>
			</v:userDefs>
			<path d="M59.53 172.91 L56.69 172.91 A2.83465 2.83465 -180 1 0 62.36 172.91 A2.83465 2.83465 -180 1 0 56.69 172.91 L59.53
						 172.91 Z" class="st1"/>
			<path d="M14.17 180 A7.08661 7.08661 0 0 1 28.35 180" class="st2"/>
			<path d="M28.35 180 A7.08661 7.08661 0 0 1 42.52 180" class="st2"/>
			<path d="M42.52 180 A7.08661 7.08661 0 0 1 56.69 180" class="st2"/>
			<path d="M14.17 180 L0 180" class="st2"/>
			<path d="M56.69 180 L70.87 180" class="st2"/>
		</g>
		<g id="shape32-71" v:mID="32" v:groupContext="shape" transform="translate(250.866,-68.0315)">
			<title>Лист.32</title>
			<v:custProps>
				<v:cp v:nameU="Radus" v:lbl="Радиус" v:type="2" v:format="0.## u" v:langID="1049" v:val="VT0(0.098425196850394):24"/>
				<v:cp v:nameU="NumberOfArcs" v:lbl="Число дуг" v:type="2" v:format="0" v:langID="1049" v:val="VT0(3):26"/>
				<v:cp v:nameU="ParallelCoilIeads" v:lbl="Вводы параллельно катушки" v:type="3" v:invis="false" v:langID="1049"
						v:val="VT0(1):5"/>
				<v:cp v:nameU="ShowCoilPins" v:lbl="Показать выводы катушки" v:type="3" v:langID="1049" v:val="VT0(1):5"/>
				<v:cp v:nameU="ShowStartOfWinding" v:lbl="Показать начало обмотки" v:type="3" v:langID="1033" v:val="VT0(1):5"/>
				<v:cp v:nameU="SwapBeginEndWinding" v:lbl="Поменять начало и конец обмотки" v:type="3" v:invis="false"
						v:langID="1033" v:val="VT0(1):5"/>
			</v:custProps>
			<v:userDefs>
				<v:ud v:nameU="ArcW" v:prompt="" v:val="VT0(0.19685039370079):24"/>
				<v:ud v:nameU="ArcH" v:prompt="" v:val="VT0(0.098425196850394):24"/>
				<v:ud v:nameU="Ks" v:prompt="" v:val="VT0(1):26"/>
				<v:ud v:nameU="Radus" v:prompt="" v:val="VT0(0.098425196850394):24"/>
				<v:ud v:nameU="Width" v:prompt="" v:val="VT0(0.98425196850394):24"/>
				<v:ud v:nameU="Height" v:prompt="" v:val="VT0(0.19685039370079):24"/>
				<v:ud v:nameU="LegthPin" v:prompt="" v:val="VT0(0.19685039370079):24"/>
				<v:ud v:nameU="OffsetArcsX" v:prompt="" v:val="VT0(0.19685039370079):24"/>
				<v:ud v:nameU="StartDesignationSize" v:prompt="" v:val="VT0(0.078740157480315):24"/>
			</v:userDefs>
			<path d="M59.53 172.91 L56.69 172.91 A2.83465 2.83465 -180 1 0 62.36 172.91 A2.83465 2.83465 -180 1 0 56.69 172.91 L59.53
						 172.91 Z" class="st1"/>
			<path d="M14.17 180 A7.08661 7.08661 0 0 1 28.35 180" class="st2"/>
			<path d="M28.35 180 A7.08661 7.08661 0 0 1 42.52 180" class="st2"/>
			<path d="M42.52 180 A7.08661 7.08661 0 0 1 56.69 180" class="st2"/>
			<path d="M14.17 180 L0 180" class="st2"/>
			<path d="M56.69 180 L70.87 180" class="st2"/>
		</g>
		<g id="shape33-78" v:mID="33" v:groupContext="shape" transform="translate(250.866,-11.3386)">
			<title>Лист.33</title>
			<v:custProps>
				<v:cp v:nameU="Radus" v:lbl="Радиус" v:type="2" v:format="0.## u" v:langID="1049" v:val="VT0(0.098425196850394):24"/>
				<v:cp v:nameU="NumberOfArcs" v:lbl="Число дуг" v:type="2" v:format="0" v:langID="1049" v:val="VT0(3):26"/>
				<v:cp v:nameU="ParallelCoilIeads" v:lbl="Вводы параллельно катушки" v:type="3" v:invis="false" v:langID="1049"
						v:val="VT0(1):5"/>
				<v:cp v:nameU="ShowCoilPins" v:lbl="Показать выводы катушки" v:type="3" v:langID="1049" v:val="VT0(1):5"/>
				<v:cp v:nameU="ShowStartOfWinding" v:lbl="Показать начало обмотки" v:type="3" v:langID="1033" v:val="VT0(1):5"/>
				<v:cp v:nameU="SwapBeginEndWinding" v:lbl="Поменять начало и конец обмотки" v:type="3" v:invis="false"
						v:langID="1033" v:val="VT0(1):5"/>
			</v:custProps>
			<v:userDefs>
				<v:ud v:nameU="ArcW" v:prompt="" v:val="VT0(0.19685039370079):24"/>
				<v:ud v:nameU="ArcH" v:prompt="" v:val="VT0(0.098425196850394):24"/>
				<v:ud v:nameU="Ks" v:prompt="" v:val="VT0(1):26"/>
				<v:ud v:nameU="Radus" v:prompt="" v:val="VT0(0.098425196850394):24"/>
				<v:ud v:nameU="Width" v:prompt="" v:val="VT0(0.98425196850394):24"/>
				<v:ud v:nameU="Height" v:prompt="" v:val="VT0(0.19685039370079):24"/>
				<v:ud v:nameU="LegthPin" v:prompt="" v:val="VT0(0.19685039370079):24"/>
				<v:ud v:nameU="OffsetArcsX" v:prompt="" v:val="VT0(0.19685039370079):24"/>
				<v:ud v:nameU="StartDesignationSize" v:prompt="" v:val="VT0(0.078740157480315):24"/>
			</v:userDefs>
			<path d="M59.53 172.91 L56.69 172.91 A2.83465 2.83465 -180 1 0 62.36 172.91 A2.83465 2.83465 -180 1 0 56.69 172.91 L59.53
						 172.91 Z" class="st1"/>
			<path d="M14.17 180 A7.08661 7.08661 0 0 1 28.35 180" class="st2"/>
			<path d="M28.35 180 A7.08661 7.08661 0 0 1 42.52 180" class="st2"/>
			<path d="M42.52 180 A7.08661 7.08661 0 0 1 56.69 180" class="st2"/>
			<path d="M14.17 180 L0 180" class="st2"/>
			<path d="M56.69 180 L70.87 180" class="st2"/>
		</g>
		<g id="shape34-85" v:mID="34" v:groupContext="shape" transform="translate(236.693,-72.2835)">
			<title>Лист.34</title>
			<ellipse cx="2.83465" cy="184.252" rx="2.83465" ry="2.83465" class="st1"/>
			<ellipse cx="2.83465" cy="184.252" rx="2.83465" ry="2.83465" class="st4"/>
		</g>
		<g id="shape35-88" v:mID="35" v:groupContext="shape" v:layerMember="0" transform="translate(238.11,-77.9528)">
			<title>Угловая соед линия.35</title>
			<path d="M1.42 187.09 L1.42 133.23 L12.76 133.23" class="st2"/>
		</g>
		<g id="shape36-91" v:mID="36" v:groupContext="shape" v:layerMember="0" transform="translate(252.283,-18.4252)">
			<title>Угловая соед линия.36</title>
			<path d="M-1.42 187.09 L-12.76 187.09 L-12.76 133.23" class="st2"/>
		</g>
		<g id="shape37-94" v:mID="37" v:groupContext="shape" v:layerMember="0" transform="translate(239.528,-68.0315)">
			<title>Прямая соеденительная.37</title>
			<path d="M2.83 180 L11.34 180" class="st2"/>
		</g>
		<g id="shape38-97" v:mID="38" v:groupContext="shape" transform="translate(394.016,-128.976)">
			<title>Лист.38</title>
			<ellipse cx="2.83465" cy="184.252" rx="2.83465" ry="2.83465" class="st3"/>
		</g>
		<g id="shape39-99" v:mID="39" v:groupContext="shape" transform="translate(394.016,-72.2835)">
			<title>Лист.39</title>
			<ellipse cx="2.83465" cy="184.252" rx="2.83465" ry="2.83465" class="st3"/>
		</g>
		<g id="shape40-101" v:mID="40" v:groupContext="shape" transform="translate(394.016,-15.5906)">
			<title>Лист.40</title>
			<ellipse cx="2.83465" cy="184.252" rx="2.83465" ry="2.83465" class="st3"/>
		</g>
		<g id="shape41-103" v:mID="41" v:groupContext="shape" v:layerMember="0" transform="translate(321.732,-124.724)">
			<title>Прямая соеденительная.41</title>
			<path d="M0 180 L72.28 180" class="st2"/>
		</g>
		<g id="shape42-106" v:mID="42" v:groupContext="shape" v:layerMember="0" transform="translate(321.732,-68.0315)">
			<title>Прямая соеденительная.42</title>
			<path d="M0 180 L72.28 180" class="st2"/>
		</g>
		<g id="shape43-109" v:mID="43" v:groupContext="shape" v:layerMember="0" transform="translate(321.732,-11.3386)">
			<title>Прямая соеденительная.43</title>
			<path d="M0 180 L72.28 180" class="st2"/>
		</g>
		<g id="shape44-112" v:mID="44" v:groupContext="shape" transform="translate(28.3465,-138.898)">
			<title>Лист.44</title>
			<desc>A</desc>
			<v:textBlock v:margins="rect(2,2,2,2)" v:tabSpace="42.5197"/>
			<v:textRect cx="9.92126" cy="178.583" width="19.85" height="17.0079"/>
			<rect x="0" y="170.079" width="19.8425" height="17.0079" class="st5"/>
			<text x="2.96" y="185.78" class="st6" v:langID="1033"><v:paragraph v:horizAlign="1"/><v:tabList/>A</text>		</g>
		<g id="shape45-115" v:mID="45" v:groupContext="shape" transform="translate(28.3465,-82.2047)">
			<title>Лист.45</title>
			<desc>B</desc>
			<v:textBlock v:margins="rect(2,2,2,2)" v:tabSpace="42.5197"/>
			<v:textRect cx="9.92126" cy="178.583" width="19.85" height="17.0079"/>
			<rect x="0" y="170.079" width="19.8425" height="17.0079" class="st5"/>
			<text x="3.73" y="185.78" class="st6" v:langID="1033"><v:paragraph v:horizAlign="1"/><v:tabList/>B</text>		</g>
		<g id="shape46-118" v:mID="46" v:groupContext="shape" transform="translate(28.3465,-25.3498)">
			<title>Лист.46</title>
			<desc>C</desc>
			<v:textBlock v:margins="rect(2,2,2,2)" v:tabSpace="42.5197"/>
			<v:textRect cx="9.92126" cy="178.583" width="19.85" height="17.0079"/>
			<rect x="0" y="170.079" width="19.8425" height="17.0079" class="st5"/>
			<text x="4.51" y="185.78" class="st6" v:langID="1033"><v:paragraph v:horizAlign="1"/><v:tabList/>C</text>		</g>
		<g id="shape47-121" v:mID="47" v:groupContext="shape" transform="translate(188.504,-138.898)">
			<title>Лист.47</title>
			<desc>X</desc>
			<v:textBlock v:margins="rect(2,2,2,2)" v:tabSpace="42.5197"/>
			<v:textRect cx="9.92126" cy="178.583" width="19.85" height="17.0079"/>
			<rect x="0" y="170.079" width="19.8425" height="17.0079" class="st5"/>
			<text x="2.96" y="185.78" class="st6" v:langID="1033"><v:paragraph v:horizAlign="1"/><v:tabList/>X</text>		</g>
		<g id="shape48-124" v:mID="48" v:groupContext="shape" transform="translate(188.504,-82.2047)">
			<title>Лист.48</title>
			<desc>Y</desc>
			<v:textBlock v:margins="rect(2,2,2,2)" v:tabSpace="42.5197"/>
			<v:textRect cx="9.92126" cy="178.583" width="19.85" height="17.0079"/>
			<rect x="0" y="170.079" width="19.8425" height="17.0079" class="st5"/>
			<text x="2.96" y="185.78" class="st6" v:langID="1033"><v:paragraph v:horizAlign="1"/><v:tabList/>Y</text>		</g>
		<g id="shape49-127" v:mID="49" v:groupContext="shape" transform="translate(188.504,-25.3498)">
			<title>Лист.49</title>
			<desc>Z</desc>
			<v:textBlock v:margins="rect(2,2,2,2)" v:tabSpace="42.5197"/>
			<v:textRect cx="9.92126" cy="178.583" width="19.85" height="17.0079"/>
			<rect x="0" y="170.079" width="19.8425" height="17.0079" class="st5"/>
			<text x="3.73" y="185.78" class="st6" v:langID="1033"><v:paragraph v:horizAlign="1"/><v:tabList/>Z</text>		</g>
		<g id="shape50-130" v:mID="50" v:groupContext="shape" transform="translate(386.929,-138.898)">
			<title>Лист.50</title>
			<desc>a</desc>
			<v:textBlock v:margins="rect(2,2,2,2)" v:tabSpace="42.5197"/>
			<v:textRect cx="9.92126" cy="178.583" width="19.85" height="17.0079"/>
			<rect x="0" y="170.079" width="19.8425" height="17.0079" class="st5"/>
			<text x="4.51" y="185.78" class="st6" v:langID="1033"><v:paragraph v:horizAlign="1"/><v:tabList/>a</text>		</g>
		<g id="shape51-133" v:mID="51" v:groupContext="shape" transform="translate(386.929,-82.2047)">
			<title>Лист.51</title>
			<desc>b</desc>
			<v:textBlock v:margins="rect(2,2,2,2)" v:tabSpace="42.5197"/>
			<v:textRect cx="9.92126" cy="178.583" width="19.85" height="17.0079"/>
			<rect x="0" y="170.079" width="19.8425" height="17.0079" class="st5"/>
			<text x="4.51" y="185.78" class="st6" v:langID="1033"><v:paragraph v:horizAlign="1"/><v:tabList/>b</text>		</g>
		<g id="shape52-136" v:mID="52" v:groupContext="shape" transform="translate(386.929,-25.3498)">
			<title>Лист.52</title>
			<desc>c</desc>
			<v:textBlock v:margins="rect(2,2,2,2)" v:tabSpace="42.5197"/>
			<v:textRect cx="9.92126" cy="178.583" width="19.85" height="17.0079"/>
			<rect x="0" y="170.079" width="19.8425" height="17.0079" class="st5"/>
			<text x="5.28" y="185.78" class="st6" v:langID="1033"><v:paragraph v:horizAlign="1"/><v:tabList/>c</text>		</g>
		<g id="shape53-139" v:mID="53" v:groupContext="shape" transform="translate(239.528,-138.898)">
			<title>Лист.53</title>
			<desc>x</desc>
			<v:textBlock v:margins="rect(2,2,2,2)" v:tabSpace="42.5197"/>
			<v:textRect cx="9.92126" cy="178.583" width="19.85" height="17.0079"/>
			<rect x="0" y="170.079" width="19.8425" height="17.0079" class="st5"/>
			<text x="4.51" y="185.78" class="st6" v:langID="1033"><v:paragraph v:horizAlign="1"/><v:tabList/>x</text>		</g>
		<g id="shape54-142" v:mID="54" v:groupContext="shape" transform="translate(240.945,-82.2047)">
			<title>Лист.54</title>
			<desc>y</desc>
			<v:textBlock v:margins="rect(2,2,2,2)" v:tabSpace="42.5197"/>
			<v:textRect cx="9.92126" cy="178.583" width="19.85" height="17.0079"/>
			<rect x="0" y="170.079" width="19.8425" height="17.0079" class="st5"/>
			<text x="4.51" y="185.78" class="st6" v:langID="1033"><v:paragraph v:horizAlign="1"/><v:tabList/>y</text>		</g>
		<g id="shape55-145" v:mID="55" v:groupContext="shape" transform="translate(240.945,-25.3498)">
			<title>Лист.55</title>
			<desc>z</desc>
			<v:textBlock v:margins="rect(2,2,2,2)" v:tabSpace="42.5197"/>
			<v:textRect cx="9.92126" cy="178.583" width="19.85" height="17.0079"/>
			<rect x="0" y="170.079" width="19.8425" height="17.0079" class="st5"/>
			<text x="4.51" y="185.78" class="st6" v:langID="1033"><v:paragraph v:horizAlign="1"/><v:tabList/>z</text>		</g>
		<g id="shape56-148" v:mID="56" v:groupContext="shape" transform="translate(418.11,17.0079) rotate(90)">
			<title>Лист.56</title>
			<path d="M0 187.09 L169.51 187.09" class="st2"/>
		</g>
		<g id="shape57-151" v:mID="57" v:groupContext="shape" transform="translate(103.465,229.606) rotate(180)">
			<title>Лист.57</title>
			<desc>IA1</desc>
			<v:textBlock v:margins="rect(0,0,0,0)" v:tabSpace="42.5197"/>
			<v:textRect cx="23.8252" cy="197.858" width="47.66" height="0" transform="rotate(180)"/>
			<path d="M9.29 187.09 L9.65 187.09 L47.65 187.09" class="st7"/>
			<text x="-28.39" y="-193.61" transform="rotate(180)" class="st9" v:langID="1033"><v:paragraph v:horizAlign="1"/><v:tabList/>I<tspan
						dy="0.145em" class="st10" v:baseFontSize="14.1732">A</tspan><tspan class="st10" v:baseFontSize="14.1732">1</tspan></text>		</g>
		<g id="shape58-160" v:mID="58" v:groupContext="shape" transform="translate(103.465,289.134) rotate(180)">
			<title>Лист.58</title>
			<desc>IB1</desc>
			<v:textBlock v:margins="rect(0,0,0,0)" v:tabSpace="42.5197"/>
			<v:textRect cx="23.8252" cy="197.858" width="47.66" height="0" transform="rotate(180)"/>
			<path d="M9.29 187.09 L9.65 187.09 L47.65 187.09" class="st7"/>
			<text x="-28.16" y="-193.61" transform="rotate(180)" class="st9" v:langID="1033"><v:paragraph v:horizAlign="1"/><v:tabList/>I<tspan
						dy="0.145em" class="st10" v:baseFontSize="14.1732">B</tspan><tspan class="st10" v:baseFontSize="14.1732">1</tspan></text>		</g>
		<g id="shape59-168" v:mID="59" v:groupContext="shape" transform="translate(103.465,345.827) rotate(180)">
			<title>Лист.59</title>
			<desc>IC1</desc>
			<v:textBlock v:margins="rect(0,0,0,0)" v:tabSpace="42.5197"/>
			<v:textRect cx="23.8252" cy="197.858" width="47.66" height="0" transform="rotate(180)"/>
			<path d="M9.29 187.09 L9.65 187.09 L47.65 187.09" class="st7"/>
			<text x="-27.94" y="-193.61" transform="rotate(180)" class="st9" v:langID="1033"><v:paragraph v:horizAlign="1"/><v:tabList/>I<tspan
						dy="0.145em" class="st10" v:baseFontSize="14.1732">C</tspan><tspan class="st10" v:baseFontSize="14.1732">1</tspan></text>		</g>
		<g id="shape60-176" v:mID="60" v:groupContext="shape" transform="translate(374.173,2.83465)">
			<title>Лист.60</title>
			<path d="M17.01 82.2 L0 130.39 L25.51 130.39 L6.8 171.99" class="st11"/>
		</g>
		<g id="shape61-182" v:mID="61" v:groupContext="shape" transform="translate(369.921,286.299) rotate(180)">
			<title>Лист.61</title>
			<desc>IКЗ2</desc>
			<v:textBlock v:margins="rect(0,0,0,0)" v:tabSpace="42.5197"/>
			<v:textRect cx="23.8252" cy="197.858" width="47.66" height="0" transform="rotate(180)"/>
			<path d="M9.29 187.09 L9.65 187.09 L47.65 187.09" class="st7"/>
			<text x="-30.33" y="-193.61" transform="rotate(180)" class="st9" v:langID="1033"><v:paragraph v:horizAlign="1"/><v:tabList/>I<tspan
						dy="0.145em" class="st10" v:langID="1049" v:baseFontSize="14.1732">КЗ</tspan><tspan class="st10"
						v:baseFontSize="14.1732">2</tspan></text>		</g>
		<g id="shape62-190" v:mID="62" v:groupContext="shape" v:layerMember="0" transform="translate(392.598,-75.1181)">
			<title>Угловая соед линия.62</title>
			<path d="M7.09 187.09 L51.02 187.09 L51.02 243.78 L7.09 243.78" class="st13"/>
		</g>
		<g id="shape63-193" v:mID="63" v:groupContext="shape" transform="translate(325.106,345.827) scale(1,-1)">
			<title>Лист.63</title>
			<desc>IКЗ2</desc>
			<v:textBlock v:margins="rect(0,0,0,0)" v:tabSpace="42.5197"/>
			<v:textRect cx="23.8252" cy="197.858" width="47.66" height="0"/>
			<path d="M9.29 187.09 L9.65 187.09 L47.65 187.09" class="st7"/>
			<text x="17.32" y="-193.61" transform="scale(1,-1)" class="st9" v:langID="1033"><v:paragraph v:horizAlign="1"/><v:tabList/>I<tspan
						dy="0.145em" class="st10" v:langID="1049" v:baseFontSize="14.1732">КЗ</tspan><tspan class="st10"
						v:baseFontSize="14.1732">2</tspan></text>		</g>
		<g id="shape64-201" v:mID="64" v:groupContext="shape" transform="translate(135.184,263.622) scale(1,-1)">
			<title>Лист.64</title>
			<desc>IAB1</desc>
			<v:textBlock v:margins="rect(0,0,0,0)" v:tabSpace="42.5197"/>
			<v:textRect cx="23.8252" cy="197.858" width="47.66" height="0"/>
			<path d="M9.29 187.09 L9.65 187.09 L47.65 187.09" class="st7"/>
			<text x="17.43" y="-193.61" transform="scale(1,-1)" class="st9" v:langID="1033"><v:paragraph v:horizAlign="1"/><v:tabList/>I<tspan
						dy="0.145em" class="st10" v:baseFontSize="14.1732">AB</tspan><tspan class="st10" v:baseFontSize="14.1732">1</tspan></text>		</g>
		<g id="shape65-209" v:mID="65" v:groupContext="shape" transform="translate(131.811,317.48) scale(1,-1)">
			<title>Лист.65</title>
			<desc>IBC1</desc>
			<v:textBlock v:margins="rect(0,0,0,0)" v:tabSpace="42.5197"/>
			<v:textRect cx="23.8252" cy="197.858" width="47.66" height="0"/>
			<path d="M9.29 187.09 L9.65 187.09 L47.65 187.09" class="st7"/>
			<text x="17.89" y="-193.61" transform="scale(1,-1)" class="st9" v:langID="1033"><v:paragraph v:horizAlign="1"/><v:tabList/>I<tspan
						dy="0.145em" class="st10" v:baseFontSize="14.1732">BC</tspan><tspan class="st10" v:baseFontSize="14.1732">1</tspan></text>		</g>
		<g id="shape66-217" v:mID="66" v:groupContext="shape" transform="translate(137.48,205.309) scale(1,-1)">
			<title>Лист.66</title>
			<desc>ICA1</desc>
			<v:textBlock v:margins="rect(0,0,0,0)" v:tabSpace="42.5197"/>
			<v:textRect cx="23.8252" cy="197.858" width="47.66" height="0"/>
			<path d="M9.29 187.09 L9.65 187.09 L47.65 187.09" class="st7"/>
			<text x="17.66" y="-193.61" transform="scale(1,-1)" class="st9" v:langID="1033"><v:paragraph v:horizAlign="1"/><v:tabList/>I<tspan
						dy="0.145em" class="st10" v:baseFontSize="14.1732">CA</tspan><tspan class="st10" v:baseFontSize="14.1732">1</tspan></text>		</g>
		<g id="shape1-225" v:mID="1" v:groupContext="shape" transform="translate(370.336,235.347) rotate(180)">
			<title>Лист.1</title>
			<desc>Ia2=0</desc>
			<v:textBlock v:margins="rect(0,0,0,0)" v:tabSpace="42.5197"/>
			<v:textRect cx="23.8252" cy="197.858" width="47.66" height="0" transform="rotate(180)"/>
			<path d="M9.29 187.09 L9.65 187.09 L47.65 187.09" class="st7"/>
			<text x="-34.79" y="-193.61" transform="rotate(180)" class="st9" v:langID="1033"><v:paragraph v:horizAlign="1"/><v:tabList/>I<tspan
						dy="0.145em" class="st10" v:baseFontSize="14.1732">a</tspan><tspan class="st10" v:baseFontSize="14.1732">2</tspan><tspan
						dy="-0.073em" class="st14">=</tspan><tspan class="st14">0</tspan></text>		</g>
	</g>
</svg>
